PathFileType	4	(X/Y/Z)	D:\Documents\my_script\MATLAB\opensim\convert_file_format\tsv_to_trc\CE_8km_M.tsv
DataRate	CameraRate	NumFrames	NumMarkers	Units	OrigDataRate	OrigDataStartFrame	OrigNumFrames
200	200	12	23	mm	200	1099	200
Frame#	Time	Top.Head			L.Acromium			R.Acromium			Sternum			L.ASIS			R.ASIS			V.Sacral			L.Knee.Lat			L.Knee.Med			L.Ankle.Lat			L.Ankle.Med			L.Heel			L.Toe.Lat			L.Toe.Med			L.Toe.Tip			R.Knee.Lat			R.Knee.Med			R.Ankle.Lat			R.Ankle.Med			R.Heel			R.Toe.Lat			R.Toe.Med			R.Toe.Tip		
		X1	Y1	Z1	X2	Y2	Z2	X3	Y3	Z3	X4	Y4	Z4	X5	Y5	Z5	X6	Y6	Z6	X7	Y7	Z7	X8	Y8	Z8	X9	Y9	Z9	X10	Y10	Z10	X11	Y11	Z11	X12	Y12	Z12	X13	Y13	Z13	X14	Y14	Z14	X15	Y15	Z15	X16	Y16	Z16	X17	Y17	Z17	X18	Y18	Z18	X19	Y19	Z19	X20	Y20	Z20	X21	Y21	Z21	X22	Y22	Z22	X23	Y23	Z23
1299	6.49	12.164	1742.52	400.958	203.037	1464.796	303.768	-158.173	1451.803	447.6	66.415	1409.958	458.653	177.135	958.194	380.519	-105.975	954.663	402.55	18.138	1019.592	214.159	190.568	506.242	413.696	62.29	470.693	434.209	158.813	115.905	454.297	75.236	133.015	493.644	95.967	31.894	395.293	196.244	81.206	564.595	97.492	110.346	609.225	156.748	134.55	651.533	-131.48	520.625	178.789	7.736	482.587	186.5	-84.607	199.096	-64.738	-4.64	189.233	-12.342	-11.942	234.743	-141.986	-112.73	59.222	-48.389	-7.939	55.631	-14.768	-63.376	39.19	16.708
1300	6.495	13.674	1741.287	400.768	204.161	1463.092	303.606	-156.758	1450.891	447.407	67.54	1408.837	458.633	177.804	956.813	380.706	-105.272	954.127	403.282	18.505	1018.372	214.392	191.579	504.083	413.632	62.133	468.763	433.341	158.086	114.896	458.207	74.517	132.709	496.337	95.153	30.26	399.887	194.753	81.196	569.134	95.552	111.77	612.563	155.117	135.964	655.112	-131.28	519.261	179.947	7.771	481.07	187.066	-84.799	202.553	-69.351	-4.848	191.323	-17.049	-12.165	240.393	-145.417	-112.509	61.859	-56.905	-8.105	57.368	-23.097	-63.526	38.593	7.636
1301	6.5	15.203	1739.813	400.571	204.324	1461.272	303.132	-155.449	1449.954	448.17	68.692	1407.429	458.595	178.485	955.21	380.827	-104.443	953.057	403.441	19.664	1016.641	214.567	192.461	501.815	413.901	62.041	466.688	432.997	157.255	113.589	460.896	73.611	132.081	498.28	94.331	28.957	402.785	193.117	80.512	572.312	93.46	112.321	614.61	153.328	136.332	657.529	-131.086	517.414	181.596	7.823	479.22	188.004	-84.89	206.019	-73.701	-4.891	193.342	-21.637	-12.383	245.895	-148.667	-112.277	64.627	-65.086	-8.222	59.049	-31.423	-63.588	37.944	-1.344
1302	6.505	16.669	1738.156	400.398	204.519	1459.259	302.646	-154.156	1448.743	448.834	69.835	1405.743	458.515	179.161	953.335	380.857	-103.575	951.543	403.471	20.886	1014.595	214.698	193.145	499.502	414.447	61.992	464.618	433.143	156.387	112.168	462.432	72.641	130.967	499.151	93.712	28.064	403.977	191.402	79.168	574.081	91.257	111.772	615.358	151.374	135.466	658.885	-130.913	515.149	183.709	7.9	477.04	189.303	-84.877	209.396	-77.764	-4.779	195.253	-26.083	-12.543	251.236	-151.664	-112.045	67.496	-72.915	-8.332	60.651	-39.609	-63.576	37.186	-10.233
1303	6.51	18.062	1736.23	400.257	204.709	1456.972	302.153	-152.94	1447.259	449.398	70.884	1403.809	458.399	179.812	951.206	380.822	-102.743	949.83	403.851	21.437	1012.396	214.782	193.629	497.121	415.221	61.982	462.68	433.707	155.474	110.676	462.775	71.615	129.271	498.932	93.243	27.658	403.312	189.662	77.195	574.372	88.873	110.041	614.813	149.275	133.269	659.203	-130.775	512.468	186.24	8.026	474.51	190.827	-84.78	212.687	-81.504	-4.534	197.054	-30.337	-12.648	256.425	-154.374	-111.8	70.448	-80.375	-8.466	62.229	-47.518	-63.581	36.53	-19.009
1304	6.515	19.46	1734.081	400.117	204.891	1454.432	301.644	-151.722	1445.525	449.936	71.954	1401.606	458.236	180.498	948.885	380.747	-101.862	947.646	404.127	21.998	1009.916	214.811	193.923	494.678	416.203	62.001	460.977	434.618	154.55	109.252	461.878	70.515	126.942	497.565	92.929	27.86	400.737	187.916	74.622	573.052	86.726	106.826	613.172	147.142	129.644	658.406	-130.65	509.406	189.142	8.158	471.72	192.694	-84.609	215.913	-84.895	-4.182	198.795	-34.354	-12.113	261.482	-156.48	-111.58	73.521	-87.487	-8.56	63.911	-55.171	-63.55	36.277	-27.556
1305	6.52	20.855	1731.687	399.965	205.153	1451.606	301.123	-150.524	1443.527	450.317	72.987	1399.14	458.022	181.243	946.384	380.67	-100.919	945.003	404.31	22.608	1007.152	214.8	193.886	492.199	417.436	62.057	459.488	435.793	153.548	107.802	459.643	69.287	123.92	495.286	92.758	28.684	396.192	186.239	71.392	569.933	84.932	102.015	610.304	145.06	124.49	656.35	-130.547	505.994	192.35	8.308	468.623	194.882	-84.359	219.033	-87.941	-3.751	200.485	-38.09	-11.518	266.391	-158.234	-111.404	76.731	-94.191	-8.5	65.738	-62.536	-63.475	36.572	-35.694
1306	6.525	22.273	1729.091	399.786	206.485	1448.377	300.911	-149.32	1441.063	449.539	73.927	1396.39	457.761	182.038	943.692	380.584	-99.915	941.853	404.377	23.265	1004.135	214.755	193.495	489.687	418.863	62.154	458.112	437.159	152.475	106.185	455.937	67.799	120.38	492.067	92.597	29.732	389.897	184.77	67.457	565.056	83.306	95.741	606.026	143.133	117.74	652.909	-130.473	502.261	195.833	8.475	465.212	197.344	-84.056	222.078	-90.634	-3.287	202.16	-41.491	-10.801	271.131	-159.607	-111.256	80.058	-100.446	-8.458	67.755	-69.297	-63.429	37.423	-43.329
1307	6.53	23.029	1726.239	399.938	207.956	1444.85	300.72	-148.287	1437.888	448.7	74.804	1393.366	457.472	182.86	940.831	380.518	-98.88	938.398	404.369	23.998	1000.856	214.68	192.88	487.162	420.35	62.29	456.677	438.666	151.153	104.143	450.674	66.191	116.392	487.473	92.304	30.805	382.068	183.598	62.846	558.621	81.91	88.307	600.509	141.49	109.615	648.034	-130.42	498.202	199.534	8.619	461.49	200.073	-83.731	225.044	-92.958	-2.812	203.836	-44.51	-10.006	275.684	-160.649	-111.153	83.458	-106.177	-8.389	69.979	-75.496	-63.399	38.877	-50.327
1308	6.535	23.75	1723.179	400.105	209.522	1441.086	300.532	-147.31	1434.445	447.812	75.68	1390.127	457.162	183.7	937.858	380.458	-97.841	934.817	404.324	24.784	997.349	214.566	192.074	484.654	421.713	62.468	454.988	440.246	149.839	101.871	444.052	64.547	112.239	481.659	91.957	31.805	373.163	183.383	58.145	551.02	80.981	80.238	593.932	140.186	100.658	641.927	-130.389	493.863	203.43	8.731	457.51	203.145	-83.39	227.875	-94.928	-2.349	205.541	-47.134	-9.175	279.999	-161.387	-111.098	86.894	-111.313	-8.272	72.383	-81.052	-63.326	40.771	-56.57
1309	6.54	25.053	1719.875	399.952	211.099	1437.091	300.342	-146.343	1431.133	446.828	76.523	1386.649	456.845	184.563	934.753	380.436	-96.962	931.288	404.248	25.628	993.618	214.396	191.258	482.22	422.834	62.729	452.897	441.813	148.493	99.603	436.385	63.04	108.198	474.719	91.627	32.642	363.558	183.667	54.001	542.487	80.461	72.432	586.561	138.992	91.726	634.944	-130.371	489.276	207.498	8.833	453.214	206.478	-83.023	230.556	-96.514	-1.899	207.233	-49.353	-8.663	284.084	-161.989	-111.044	90.292	-115.757	-8.17	74.834	-85.9	-63.278	42.828	-62.022
1310	6.545	26.339	1716.398	399.795	212.741	1432.916	300.156	-145.431	1427.587	445.848	77.352	1382.928	456.566	185.45	931.592	380.433	-96.201	927.903	404.155	26.487	989.732	214.135	190.813	479.882	423.676	63.083	450.347	443.285	147.243	97.745	428.07	61.569	104.753	467.01	91.34	33.334	353.631	184.232	50.813	533.292	79.877	65.971	578.301	138.049	84.143	626.942	-130.358	484.438	211.72	8.945	448.597	210.022	-82.702	233.131	-97.703	-1.487	208.93	-51.149	-8.192	287.921	-162.32	-111.001	93.568	-119.499	-8.151	77.241	-90.105	-63.29	44.927	-66.731
